<?xml version="1.0" encoding="UTF-8"?>
<svg xmlns="http://www.w3.org/2000/svg" xml:space="preserve" width="5.19078in" height="1.24076in" version="1.1" style="shape-rendering:geometricPrecision; text-rendering:geometricPrecision; image-rendering:optimizeQuality; fill-rule:evenodd; clip-rule:evenodd" viewBox="0 0 5566 1330">
 <defs>
  <style type="text/css">
   
    .fil0 {fill:#6264D9;fill-rule:nonzero}
   
  </style>
 </defs>
 <g>
  <g>
   <g>
    <path class="fil0" d="M744 538l-56 58c-2,2 -4,3 -6,4 -2,1 -4,1 -6,1 -2,0 -4,0 -6,-1 -2,-1 -4,-2 -5,-4l-73 -75c-2,-1 -4,-2 -6,-3 -2,-1 -4,-1 -6,-1 -2,0 -4,0 -6,1 -2,1 -4,2 -5,3l-84 86 -56 58 -78 81 -56 58 -90 92 -58 60 -72 75c-2,2 -6,4 -9,5 -4,0 -7,-1 -11,-2l-33 -20 -14 -8c-2,-1 -4,-3 -6,-6 -1,-2 -2,-5 -2,-8l0 -33c0,-9 3,-16 9,-22l104 -107 81 -84 22 -23 57 -57 78 -81 56 -58 150 -155c2,-1 3,-3 5,-4 2,-1 4,-2 6,-3 2,-1 4,-1 6,-2 2,0 4,-1 6,-1 2,0 4,1 7,1 2,1 4,1 6,2 2,1 4,2 5,3 2,1 4,3 5,4l141 145c2,1 3,3 3,5 1,2 1,4 1,6 0,2 0,3 -1,5 -1,2 -2,4 -3,5zm0 0z" />
    <path class="fil0" d="M1165 518l0 456c0,4 0,8 -1,12 -2,4 -3,8 -5,12 -2,4 -5,7 -8,10 -3,3 -6,5 -10,8l-537 308c-4,2 -7,4 -12,5 -3,1 -7,1 -10,1l-4 0c-3,0 -7,0 -11,-1 -4,-1 -8,-3 -11,-5l-408 -237c-1,0 -2,-1 -3,-2 -1,-2 -1,-3 -1,-4 -1,-1 0,-3 0,-4 0,-1 1,-3 2,-4l64 -66c3,-2 6,-4 10,-5 3,0 7,1 10,2l342 199c3,1 5,2 8,2 3,0 6,-1 8,-2l456 -262c3,-2 5,-3 6,-6 1,-2 2,-5 2,-8l0 -305c0,-5 2,-8 5,-12l96 -97c1,-2 2,-2 3,-3 2,0 3,0 5,1 1,0 2,1 3,3 1,1 1,2 1,4z" />
    <path class="fil0" d="M1019 257l-65 67c-3,2 -6,4 -9,4 -4,1 -7,0 -11,-2l-346 -199c-2,-1 -5,-2 -8,-2 -3,0 -5,1 -8,2l-451 262c-3,2 -5,4 -6,6 -1,3 -2,5 -2,8l0 304c0,4 -2,8 -5,11l-95 99c-1,1 -3,2 -4,2 -2,1 -3,0 -4,0 -2,-1 -3,-2 -4,-3 -1,-1 -1,-2 -1,-4l0 -455c0,-4 1,-9 2,-13 1,-4 2,-8 4,-11 3,-4 5,-7 8,-10 3,-3 6,-6 10,-8l532 -309c3,-2 7,-3 11,-4 4,-1 9,-2 13,-2 4,0 8,1 12,2 5,1 8,2 12,4l413 237c1,1 2,2 3,3 1,1 1,3 1,4 0,1 0,3 0,4 -1,1 -1,2 -2,3zm0 0z" />
    <path class="fil0" d="M1165 338l0 33c0,9 -3,17 -9,23l-104 106 -81 82 -24 25 -57 58 -79 81 -56 58 -152 155c-2,2 -3,3 -5,4 -2,2 -4,3 -6,3 -2,1 -4,2 -6,2 -2,1 -4,1 -6,1 -2,0 -5,0 -7,-1 -2,0 -4,-1 -6,-2 -2,0 -4,-1 -5,-3 -2,-1 -4,-2 -5,-4l-139 -143c-1,-2 -3,-3 -3,-5 -1,-2 -2,-4 -2,-6 0,-2 1,-4 2,-6 0,-2 2,-4 3,-6l56 -57c2,-2 3,-3 5,-4 2,-1 4,-1 7,-1 2,0 4,0 6,1 2,1 4,2 5,4l72 73c1,2 3,3 5,4 2,0 4,1 6,1 2,0 4,-1 6,-1 2,-1 4,-2 6,-4l84 -86 57 -58 78 -81 57 -58 91 -93 59 -59 72 -75c3,-2 6,-4 10,-4 3,-1 7,0 10,2l33 19 14 8c3,1 5,3 6,6 2,2 2,5 2,8zm0 0z" />
   </g>
   <path class="fil0" d="M1512 918c0,28 22,50 51,50 28,0 50,-22 50,-50l0 -140 115 0c127,0 231,-67 231,-197l0 -2c0,-116 -84,-193 -220,-193l-176 0c-29,0 -51,23 -51,51l0 481zm101 -231l0 -208 118 0c76,0 125,35 125,103l0 2c0,60 -48,103 -125,103l-118 0z" />
   <path class="fil0" d="M2051 919c0,28 23,49 50,49 28,0 50,-22 50,-49l0 -129c0,-103 49,-158 120,-170 22,-4 40,-22 40,-48 0,-29 -19,-50 -50,-50 -44,0 -87,42 -110,96l0 -44c0,-28 -22,-51 -50,-51 -28,0 -50,23 -50,51l0 345z" />
   <path class="fil0" d="M2459 716c9,-68 52,-115 113,-115 66,0 104,50 111,115l-224 0zm281 200c8,-7 14,-18 14,-30 0,-24 -18,-41 -40,-41 -11,0 -18,3 -26,9 -28,23 -61,38 -103,38 -64,0 -114,-39 -125,-110l273 0c26,0 47,-20 47,-48 0,-101 -68,-215 -207,-215 -125,0 -213,102 -213,227l0 2c0,134 97,226 224,226 67,0 117,-22 156,-58z" />
   <path class="fil0" d="M3102 972c125,0 212,-64 212,-179l0 -2c0,-100 -66,-142 -183,-173 -100,-25 -125,-38 -125,-76l0 -1c0,-28 26,-51 74,-51 40,0 80,14 122,39 10,6 20,9 32,9 33,0 59,-25 59,-58 0,-25 -14,-43 -28,-51 -52,-33 -113,-51 -183,-51 -118,0 -202,69 -202,174l0 2c0,115 75,147 191,176 97,25 117,42 117,74l0 2c0,33 -32,54 -84,54 -56,0 -104,-20 -147,-52 -9,-6 -20,-12 -37,-12 -33,0 -59,26 -59,59 0,20 10,38 24,48 64,46 141,69 217,69z" />
   <path class="fil0" d="M3557 971c27,0 48,-3 71,-12 18,-7 33,-25 33,-47 0,-29 -24,-52 -52,-52 -3,0 -11,1 -15,1 -28,0 -41,-14 -41,-43l0 -189 56 0c29,0 53,-24 53,-54 0,-29 -24,-53 -53,-53l-56 0 0 -56c0,-34 -28,-62 -62,-62 -35,0 -63,28 -63,62l0 56 -4 0c-30,0 -54,24 -54,53 0,30 24,54 54,54l4 0 0 210c0,102 52,132 129,132z" />
   <path class="fil0" d="M3954 974c138,0 241,-103 241,-230l0 -2c0,-127 -102,-229 -239,-229 -138,0 -240,104 -240,231l0 1c0,127 101,229 238,229zm2 -108c-69,0 -116,-57 -116,-122l0 -2c0,-65 43,-121 114,-121 70,0 117,57 117,123l0 1c0,65 -43,121 -115,121z" />
   <path class="fil0" d="M4494 974c73,0 120,-23 157,-57 11,-10 18,-23 18,-40 0,-29 -23,-53 -53,-53 -15,0 -27,6 -34,11 -24,19 -49,31 -82,31 -69,0 -112,-55 -112,-122l0 -2c0,-65 44,-121 107,-121 33,0 56,11 78,29 8,5 20,12 37,12 31,0 57,-25 57,-56 0,-22 -12,-36 -20,-43 -37,-31 -84,-50 -151,-50 -136,0 -232,104 -232,231l0 1c0,127 97,229 230,229z" />
   <path class="fil0" d="M4756 906c0,35 29,63 63,63 35,0 63,-28 63,-63l0 -72 50 -45 110 151c15,21 30,29 54,29 32,0 59,-23 59,-57 0,-14 -5,-26 -16,-40l-118 -160 99 -85c18,-16 29,-33 29,-54 0,-29 -21,-56 -55,-56 -22,0 -37,10 -55,28l-157 148 0 -274c0,-34 -28,-62 -63,-62 -34,0 -63,28 -63,62l0 487z" />
   <path class="fil0" d="M5397 972c96,0 169,-44 169,-143l0 -1c0,-81 -72,-111 -134,-131 -48,-17 -90,-28 -90,-53l0 -2c0,-17 16,-30 47,-30 26,0 60,10 95,28 9,4 14,5 23,5 28,0 51,-21 51,-49 0,-22 -12,-38 -30,-47 -43,-22 -91,-34 -137,-34 -89,0 -162,50 -162,140l0 2c0,86 70,115 132,133 49,15 92,24 92,51l0 2c0,19 -17,33 -53,33 -35,0 -77,-14 -119,-40 -7,-4 -16,-7 -25,-7 -28,0 -50,22 -50,50 0,20 11,35 24,43 54,35 112,50 167,50z" />
  </g>
 </g>
</svg>